<?xml version="1.0" standalone="no"?><!DOCTYPE svg PUBLIC "-//W3C//DTD SVG 1.1//EN" "http://www.w3.org/Graphics/SVG/1.1/DTD/svg11.dtd"><svg t="1742605006370" class="icon" viewBox="0 0 1024 1024" version="1.1" xmlns="http://www.w3.org/2000/svg" p-id="6883" xmlns:xlink="http://www.w3.org/1999/xlink" width="200" height="200"><path d="M741.587862 1017.344l-50.052414 0c-19.49131 0-35.310345-15.819034-35.310345-35.310345s15.819034-35.310345 35.310345-35.310345l50.052414 0c37.058207-7.485793 187.250759-158.155034 198.938483-200.73931L940.526345 269.876966c0-76.023172-61.846069-137.886897-137.886897-137.886897L233.171862 131.990069c-76.040828 0-137.886897 61.846069-137.886897 137.886897l0 538.906483c0 76.058483 61.846069 137.939862 137.886897 137.939862l242.72331 0c19.49131 0 35.310345 15.819034 35.310345 35.310345s-15.819034 35.310345-35.310345 35.310345L233.171862 1017.344c-114.970483 0-208.507586-93.554759-208.507586-208.560552L24.664276 269.876966c0-114.970483 93.537103-208.507586 208.507586-208.507586l569.467586 0c114.970483 0 208.507586 93.537103 208.507586 208.507586l0 477.837241C1011.129379 815.757241 809.595586 1017.344 741.587862 1017.344z" fill="#3E3A39" p-id="6884"></path><path d="M95.002483 331.546483l856.999724 0 0 70.62069-856.999724 0 0-70.62069Z" fill="#3E3A39" p-id="6885"></path><path d="M217.758897 226.639448c-19.49131 0-35.310345-15.819034-35.310345-35.310345L182.448552 35.310345c0-19.49131 15.819034-35.310345 35.310345-35.310345s35.310345 15.819034 35.310345 35.310345l0 156.018759C253.069241 210.838069 237.267862 226.639448 217.758897 226.639448z" fill="#3E3A39" p-id="6886"></path><path d="M813.073655 226.639448c-19.49131 0-35.310345-15.819034-35.310345-35.310345L777.76331 35.310345c0-19.49131 15.819034-35.310345 35.310345-35.310345s35.310345 15.819034 35.310345 35.310345l0 156.018759C848.384 210.838069 832.564966 226.639448 813.073655 226.639448z" fill="#3E3A39" p-id="6887"></path><path d="M687.863172 1012.171034c-19.49131 0-35.310345-15.819034-35.310345-35.310345l0-125.722483c0-103.635862 84.303448-187.956966 187.956966-187.956966l110.433103 0c19.49131 0 35.310345 15.819034 35.310345 35.310345s-15.819034 35.310345-35.310345 35.310345l-110.433103 0c-64.688552 0-117.336276 52.630069-117.336276 117.336276l0 125.722483C723.173517 996.369655 707.354483 1012.171034 687.863172 1012.171034z" fill="#3E3A39" p-id="6888"></path></svg>