<?xml version="1.0" standalone="no"?><!DOCTYPE svg PUBLIC "-//W3C//DTD SVG 1.1//EN" "http://www.w3.org/Graphics/SVG/1.1/DTD/svg11.dtd"><svg t="1742599313250" class="icon" viewBox="0 0 1024 1024" version="1.1" xmlns="http://www.w3.org/2000/svg" p-id="1717" xmlns:xlink="http://www.w3.org/1999/xlink" width="200" height="200"><path d="M548.224 33.408L572.16 35.84l23.744 3.712 9.92 2.304c23.808 7.04 42.432 25.6 49.856 49.28l2.176 9.088 10.88 59.712 14.72 7.04c8.192 4.288 16.256 8.832 24.192 13.696l11.712 7.488 13.44 9.472 55.168-20.032a73.6 73.6 0 0 1 68.8 10.304l6.976 5.888 5.696 6.144 15.104 18.816a477.44 477.44 0 0 1 62.848 111.296l8.32 22.4c9.152 26.24 3.264 55.04-14.848 75.264l-6.464 6.4-44.992 39.296 1.408 17.472 0.512 21.12h-87.104l-0.384-16.448a315.072 315.072 0 0 0-1.28-16.512l-2.24-16.384-3.84-23.872 74.24-64.896-5.12-13.888a391.104 391.104 0 0 0-37.376-70.144l-11.52-16.192-8.384-10.624-91.968 33.472-19.2-16.128a290.624 290.624 0 0 0-65.024-41.344l-17.6-7.424-23.04-8.768-17.792-98.56-12.928-1.92a379.392 379.392 0 0 0-97.28 0l-13.184 2.048-17.856 98.688-22.784 8.832a290.176 290.176 0 0 0-66.944 36.672l-15.232 11.968-19.2 16.128L215.68 263.04l-8.32 10.624a392.704 392.704 0 0 0-40.768 68.032l-8 18.176-5.376 14.016 75.136 65.536-3.84 23.936a306.56 306.56 0 0 0-2.176 81.408l2.112 15.808 3.904 23.936-74.88 65.536 5.248 13.888c10.112 24.768 22.656 48.256 37.376 70.208l11.456 16.128 8.32 10.624 92.608-33.664 19.2 16.192c20.032 16.768 41.664 30.592 64.576 41.216l17.408 7.296 22.976 8.768 17.92 98.88 10.624 1.728 16.96 1.92 17.024 1.152 16.896 0.384V992l-20.864-0.384a462.656 462.656 0 0 1-41.984-3.84l-23.36-3.84a74.432 74.432 0 0 1-57.6-52.032l-1.92-8.192-10.88-60.16-14.464-6.912a369.664 369.664 0 0 1-24.064-13.632l-11.648-7.488-13.312-9.472-55.68 20.288a73.6 73.6 0 0 1-68.8-10.24l-6.976-5.952-5.696-6.08-15.04-18.88a478.72 478.72 0 0 1-62.912-111.296l-8.32-22.4a75.52 75.52 0 0 1 14.784-75.264l6.528-6.4 45.568-39.872-1.28-16.768-0.64-21.12 0.192-10.56 0.384-10.56 1.28-16.96-45.824-39.936a75.52 75.52 0 0 1-25.152-64.384l1.536-8.896 3.264-10.88a481.28 481.28 0 0 1 68.544-128.64l16.64-20.992a73.6 73.6 0 0 1 73.088-25.088l8.896 2.56 55.488 20.224 13.184-9.28c7.68-5.12 15.488-9.984 23.488-14.528l12.096-6.528 14.656-7.104 10.88-60.16c4.48-24.896 20.992-45.44 43.392-55.296l8.704-3.2 10.112-2.24A464.32 464.32 0 0 1 548.224 33.408z m391.04 795.904v96H611.712v-96h327.424z m0-205.76v96H611.712v-96h327.424zM525.44 313.152A199.296 199.296 0 0 1 724.608 512H637.504l-0.384-9.152A112.064 112.064 0 0 0 525.44 400.384c-61.888 0-112 50.24-112 112.256 0 57.408 43.008 104.704 98.56 111.36v87.68A199.36 199.36 0 0 1 326.4 512.64a199.296 199.296 0 0 1 199.04-199.488z" p-id="1718"></path></svg>