<?xml version="1.0" standalone="no"?><!DOCTYPE svg PUBLIC "-//W3C//DTD SVG 1.1//EN" "http://www.w3.org/Graphics/SVG/1.1/DTD/svg11.dtd"><svg t="1744463654024" class="icon" viewBox="0 0 1024 1024" version="1.1" xmlns="http://www.w3.org/2000/svg" p-id="17062" xmlns:xlink="http://www.w3.org/1999/xlink" width="256" height="256"><path d="M272.574 666.574l-48.99 48.99v133.84h35.864l48.988-48.988v-133.842z" fill="#E8B5B1" p-id="17063"></path><path d="M92.574 846.574l84.852 84.852 82.022-82.022-35.864-133.84zM397.426 711.426l-84.852-84.852-40 40 35.862 133.842z" fill="#D6948C" p-id="17064"></path><path d="M165 772.796h-40l-90 116.204 90 116.204h40c51.698-13.356 90-60.39 90-116.204s-38.302-102.848-90-116.204z" fill="#D4D4FF" p-id="17065"></path><path d="M75 889c0-55.812 38.302-102.848 90-116.204a119.794 119.794 0 0 0-30-3.796c-66.168 0-120 53.832-120 120s53.832 120 120 120c10.356 0 20.408-1.32 30-3.796-51.698-13.356-90-60.392-90-116.204zM864.146 159.852h-74.388l-427.48 427.48v74.388l207.28 47.28 421.87-421.868z" fill="#9EA2E3" p-id="17066"></path><path d="M736.866 32.574L315 454.442l47.278 207.278L864.146 159.852z" fill="#8288CB" p-id="17067"></path><path d="M609.286 192c-15.226-3.978-27.016-15.696-30.98-30.926-3.034-11.65-9.2-20.074-16.732-20.074-7.546 0-13.688 8.414-16.718 20.026-3.972 15.226-15.714 26.99-30.942 30.96-11.63 3.032-20.05 9.186-20.05 16.724 0 7.542 8.416 13.69 20.038 16.722 15.214 3.968 26.978 15.702 30.94 30.918 3.034 11.648 9.2 20.07 16.732 20.07 7.546 0 13.688-8.414 16.718-20.026 3.972-15.226 15.714-26.99 30.942-30.96 11.63-3.032 20.05-9.186 20.05-16.724-0.002-7.556-8.41-13.682-19.998-16.71z" fill="#EFEDFF" p-id="17068"></path><path d="M949 15h-169.708a60 60 0 0 0-42.426 17.574v254.556h254.56a60 60 0 0 0 17.574-42.426V75c0-33.136-26.862-60-60-60z" fill="#D4D4FF" p-id="17069"></path><path d="M592.28 731.72l-150-150h-129.7v124.864l152.418 152.418c17.574 17.572 40.608 26.36 63.64 26.36s46.066-8.788 63.64-26.36c35.148-35.148 35.148-92.132 0.002-127.282z" fill="#D4D4FF" p-id="17070"></path><path d="M347.386 614.106c24.908-24.91 58.294-32.386 94.894-32.386l-150-150c-35.148-35.144-92.132-35.144-127.282 0-35.146 35.148-35.146 92.132 0 127.282l147.582 147.582c0-33.366 10.942-68.616 34.806-92.478z" fill="#9EA2E3" p-id="17071"></path><path d="M160 834.458H134L99 889 134 943.542h26c20.65-9.482 35-30.33 35-54.542s-14.35-45.058-35-54.542z" fill="#FF8E9E" p-id="17072"></path><path d="M125 889c0-24.212 14.348-45.06 35-54.542a59.742 59.742 0 0 0-25-5.458c-33.138 0-60 26.862-60 60 0 33.136 26.862 60 60 60 8.924 0 17.388-1.964 25-5.458-20.652-9.482-35-30.33-35-54.542z" fill="#EA5B70" p-id="17073"></path><path d="M135 814C93.644 814 60 847.644 60 889S93.644 964 135 964s75-33.644 75-75S176.356 814 135 814z m0 120C110.188 934 90 913.812 90 889S110.188 844 135 844 180 864.188 180 889 159.812 934 135 934z" p-id="17074"></path><path d="M949 0h-169.708c-19.962 0-38.73 7.75-52.88 21.82-0.05 0.048-0.104 0.09-0.154 0.138l-105.32 105.32c-5.84 5.84-5.84 15.36 0 21.202a14.986 14.986 0 0 0 21.22 0l79.708-79.692v212.128L442.276 560.504l-106.062-106.062 194.158-194.158c10.97 41.726 51.534 41.67 62.434-0.106 2.624-10.052 10.18-17.618 20.21-20.232 41.936-10.932 41.784-51.56 0.06-62.46-10.076-2.63-17.648-10.18-20.256-20.192-10.926-41.966-51.58-41.828-62.478-0.056-2.624 10.052-10.18 17.618-20.21 20.232-41.37 10.784-41.88 50.622-1.438 62.062L315 433.228l-12.114-12.114c-40.938-40.934-107.552-40.936-148.494 0.002-40.938 40.94-40.938 107.552 0 148.494l96.968 96.966-90.022 90.022A135.14 135.14 0 0 0 135 754C60.56 754 0 814.56 0 889S60.56 1024 135 1024s135-60.56 135-135c0-9.012-0.906-17.814-2.598-26.336l90.022-90.022 96.968 96.968c41.036 41.032 107.45 41.038 148.494-0.002 40.938-40.94 40.938-107.552 0-148.494l-12.114-12.114 74.246-74.246a15 15 0 0 0-21.214-21.214l-74.246 74.246-106.066-106.066 279.59-279.588h212.13L686.23 571.114a15 15 0 0 0 21.214 21.214l294.59-294.59c14.164-14.166 21.964-33 21.964-53.034V75C1024 33.644 990.356 0 949 0zM517.7 206.5c20.38-5.314 36.348-21.29 41.67-41.688 0.682-2.614 1.47-4.616 2.202-6.09 0.738 1.482 1.534 3.5 2.218 6.132 5.302 20.362 21.284 36.324 41.706 41.658 2.602 0.68 4.598 1.464 6.068 2.194-1.48 0.734-3.49 1.526-6.116 2.21-20.38 5.314-36.348 21.29-41.67 41.688-0.682 2.614-1.47 4.616-2.204 6.092-0.736-1.484-1.532-3.498-2.216-6.13-5.306-20.372-21.274-36.33-41.674-41.652-2.616-0.682-4.622-1.47-6.098-2.204 1.48-0.734 3.49-1.524 6.114-2.21zM240.316 720.048l24.496-24.496 26.896 100.376-24.496 24.496z m-24.494 24.494l12.642 47.182a135.576 135.576 0 0 0-35.294-24.532zM135 994C77.104 994 30 946.896 30 889S77.104 784 135 784s105 47.104 105 105S192.896 994 135 994z m181.202-222.564l-14.648-54.664 34.656 34.656z m265.472 76.958c-29.312 29.308-76.752 29.316-106.068 0l-300-299.998c-29.242-29.244-29.242-76.826-0.002-106.068 29.24-29.236 76.824-29.244 106.068 0l300 299.998c29.242 29.244 29.242 76.826 0.002 106.068z m170.194-809.08c7.828-6.042 17.376-9.314 27.426-9.314H949c24.812 0 45 20.188 45 45v169.706c0 10.05-3.272 19.598-9.312 27.426h-232.82z" p-id="17075"></path><path d="M293.454 523.8l-16.97 16.97a15 15 0 0 0 21.214 21.214l16.97-16.97a15 15 0 0 0-21.214-21.214zM403.388 653.534c-18.728 1.248-34.21-14.178-32.922-32.922a15 15 0 0 0-13.938-15.992c-8.23-0.56-15.426 5.674-15.992 13.938-2.526 36.794 27.964 67.434 64.906 64.906a15 15 0 1 0-2.054-29.93zM446.098 709.44a14.996 14.996 0 0 0-0.002 21.212 15 15 0 0 0 21.212 0.002 12.83 12.83 0 0 1 18.122 0 12.8 12.8 0 0 1 0 18.118 15 15 0 0 0 21.214 21.214c16.692-16.694 16.692-43.854 0-60.546-16.692-16.688-43.852-16.688-60.546 0z" p-id="17076"></path></svg>