<?xml version="1.0" standalone="no"?><!DOCTYPE svg PUBLIC "-//W3C//DTD SVG 1.1//EN" "http://www.w3.org/Graphics/SVG/1.1/DTD/svg11.dtd"><svg t="1742639508991" class="icon" viewBox="0 0 1024 1024" version="1.1" xmlns="http://www.w3.org/2000/svg" p-id="6576" xmlns:xlink="http://www.w3.org/1999/xlink" width="200" height="200"><path d="M509.76 509.76l4.16 4.16z m4.8-0.32l-5.12 5.12z m213.12-300.8c23.04 50.88 26.56 135.04-21.12 175.36C629.44 87.36 436.48 29.76 436.48 29.76c23.04 150.72-80.64 315.52-182.4 440a332.8 332.8 0 0 0-40.32-161.28c-7.36 110.4-91.2 198.08-115.84 308.48-29.76 152.64 24.64 259.52 231.36 377.28-64.96-135.04-29.76-212.16 21.12-282.24a467.52 467.52 0 0 0 68.8-158.08 178.464 178.464 0 0 1 26.24 140.48 372.864 372.864 0 0 0 77.44-268.48c168.32 117.44 243.52 377.28 145.6 564.8 519.04-296.32 127.68-736.64 59.2-782.08z" fill="#00BBBC" p-id="6577"></path></svg>