<?xml version="1.0" standalone="no"?><!DOCTYPE svg PUBLIC "-//W3C//DTD SVG 1.1//EN" "http://www.w3.org/Graphics/SVG/1.1/DTD/svg11.dtd"><svg t="1743749700152" class="icon" viewBox="0 0 1024 1024" version="1.1" xmlns="http://www.w3.org/2000/svg" p-id="5488" width="256" height="256" xmlns:xlink="http://www.w3.org/1999/xlink"><path d="M941.349 465.189a206.263 206.263 0 0 0-157.989 90.697 92.16 92.16 0 0 1-59.246 44.617A33.646 33.646 0 0 0 768 604.89v3.658a89.966 89.966 0 0 1-12.434 41.691v5.851-5.851a99.474 99.474 0 0 1-31.452 34.377 303.543 303.543 0 0 1-146.285 43.154h-12.435a275.749 275.749 0 0 1-42.423 0 314.514 314.514 0 0 1-116.297-40.228 311.589 311.589 0 1 1 471.04-292.572A311.589 311.589 0 0 0 486.4 91.43a103.131 103.131 0 0 1-32.914 5.12c-14.629 0-15.36-7.315-15.36-7.315h0.731a12.434 12.434 0 0 1 0-7.314 34.377 34.377 0 0 1 5.852-8.777l7.314-5.12a219.429 219.429 0 0 1 97.28-21.943 309.394 309.394 0 0 0-239.909 61.44 337.92 337.92 0 0 0-78.994 89.966 32.914 32.914 0 0 1-16.091 16.091 34.377 34.377 0 0 1-26.332 0 35.84 35.84 0 0 1-22.674-38.034 100.937 100.937 0 0 1 67.291-83.383l-13.165 5.851A200.411 200.411 0 0 0 93.623 265.51a107.52 107.52 0 0 0 0 31.451c0 22.674 8.777 64.366 8.777 73.143s3.657 84.846-29.257 89.966c0 0-20.48 0-38.034-33.646a111.909 111.909 0 0 1 0-98.743A204.069 204.069 0 0 0 46.81 553.691s73.143 80.458 73.143 111.909a34.377 34.377 0 0 1-54.857 25.6l-10.971-6.583a267.703 267.703 0 0 1-31.452-47.543 204.069 204.069 0 0 0 152.137 183.589s103.863 34.377 98.012 73.143-87.04 13.897-103.132-5.12c0 0 80.458 100.205 250.149 37.303 0 0 122.149-39.498 132.389-40.229s30.72 6.583 14.628 33.646a101.669 101.669 0 0 1-85.577 55.588 212.114 212.114 0 0 0 155.063-68.754s87.04-94.354 114.103-73.143c0 0 22.674 10.972 0 66.56a228.937 228.937 0 0 0 40.228-126.537c0-79.726 48.275-167.497 73.143-158.72a15.36 15.36 0 0 1 10.24 21.211 89.234 89.234 0 0 0 7.314-68.754 97.28 97.28 0 0 1 66.56-100.937m46.812-122.149a58.514 58.514 0 0 0 23.406 13.166 56.32 56.32 0 0 0-23.406 12.434 56.32 56.32 0 0 0-12.434 23.406 53.394 53.394 0 0 0-13.166-23.406 47.543 47.543 0 0 0-23.406-12.434 58.514 58.514 0 0 0 23.406-13.166 58.514 58.514 0 0 0 13.166-23.405 49.006 49.006 0 0 0 12.434 23.405" p-id="5489" fill="#1296db"></path></svg>